<svg height="512pt" viewBox="0 -9 512.00013 512" width="512pt" xmlns="http://www.w3.org/2000/svg"><path d="m306.367188 352.550781-146.917969-146.921875c-11.714844-11.714844-11.714844-30.710937 0-42.425781l146.917969-146.917969c11.71875-11.714844 30.710937-11.714844 42.429687 0l146.917969 146.917969c11.714844 11.71875 11.714844 30.710937 0 42.425781l-146.917969 146.921875c-11.71875 11.714844-30.710937 11.714844-42.429687 0zm0 0" fill="#629acc"/><path d="m495.78125 163.273438-147.054688-147.058594c-11.675781-11.675782-30.609374-11.675782-42.289062 0l-12.621094 12.621094 123.472656 123.472656c11.679688 11.679687 11.679688 30.609375 0 42.289062l-134.433593 134.4375 23.582031 23.582032c11.679688 11.679687 30.613281 11.679687 42.289062 0l147.054688-147.054688c11.679688-11.679688 11.679688-30.609375 0-42.289062zm0 0" fill="#48709b"/><path d="m245.25 486.359375h-207.773438c-16.570312 0-30-13.433594-30-30v-207.777344c0-16.570312 13.429688-30 30-30h207.773438c16.570312 0 30 13.429688 30 30v207.777344c0 16.566406-13.429688 30-30 30zm0 0" fill="#48709b"/><path d="m245.347656 218.582031h-33.058594v192.191407c0 16.515624-13.390624 29.902343-29.902343 29.902343h-174.910157v15.78125c0 16.511719 13.386719 29.902344 29.902344 29.902344h207.96875c16.515625 0 29.902344-13.390625 29.902344-29.902344v-207.972656c0-16.515625-13.386719-29.902344-29.902344-29.902344zm0 0" fill="#3a6187"/><g fill="#52ea28"><path d="m86.738281 306.679688c0 11.925781-9.667969 21.59375-21.59375 21.59375-11.921875 0-21.589843-9.667969-21.589843-21.59375 0-11.925782 9.667968-21.589844 21.589843-21.589844 11.925781 0 21.59375 9.664062 21.59375 21.589844zm0 0"/><path d="m161.957031 306.679688c0 11.925781-9.667969 21.59375-21.589843 21.59375-11.925782 0-21.59375-9.667969-21.59375-21.59375 0-11.925782 9.667968-21.589844 21.59375-21.589844 11.921874 0 21.589843 9.664062 21.589843 21.589844zm0 0"/><path d="m238.058594 306.679688c0 11.925781-9.667969 21.59375-21.589844 21.59375-11.925781 0-21.59375-9.667969-21.59375-21.59375 0-11.925782 9.667969-21.589844 21.59375-21.589844 11.921875 0 21.589844 9.664062 21.589844 21.589844zm0 0"/><path d="m86.738281 396.386719c0 11.925781-9.667969 21.59375-21.59375 21.59375-11.921875 0-21.589843-9.667969-21.589843-21.59375 0-11.921875 9.667968-21.589844 21.589843-21.589844 11.925781 0 21.59375 9.667969 21.59375 21.589844zm0 0"/><path d="m161.957031 396.386719c0 11.925781-9.667969 21.59375-21.589843 21.59375-11.925782 0-21.59375-9.667969-21.59375-21.59375 0-11.921875 9.667968-21.589844 21.59375-21.589844 11.921874 0 21.589843 9.667969 21.589843 21.589844zm0 0"/><path d="m238.058594 396.386719c0 11.925781-9.667969 21.59375-21.589844 21.59375-11.925781 0-21.59375-9.667969-21.59375-21.59375 0-11.921875 9.667969-21.589844 21.59375-21.589844 11.921875 0 21.589844 9.667969 21.589844 21.589844zm0 0"/></g><path d="m216.46875 374.796875c-1.433594 0-2.828125.144531-4.179688.40625v42.371094c1.351563.261719 2.746094.40625 4.179688.40625 11.921875 0 21.589844-9.667969 21.589844-21.59375 0-11.921875-9.667969-21.589844-21.589844-21.589844zm0 0" fill="#3eb500"/><path d="m287.320312 117.675781c-8.429687-8.429687-22.101562-8.429687-30.535156 0-8.433594 8.433594-8.433594 22.105469 0 30.539063 8.433594 8.429687 22.105469 8.429687 30.535156 0 8.433594-8.433594 8.433594-22.105469 0-30.539063zm0 0" fill="#52ea28"/><path d="m340.507812 170.867188c-8.429687-8.433594-22.101562-8.433594-30.535156 0-8.429687 8.433593-8.429687 22.101562 0 30.535156 8.433594 8.433594 22.105469 8.433594 30.535156 0 8.433594-8.433594 8.433594-22.101563 0-30.535156zm0 0" fill="#52ea28"/><path d="m394.320312 224.675781c-8.433593-8.429687-22.105468-8.429687-30.535156 0-8.433594 8.433594-8.433594 22.105469 0 30.535157 8.429688 8.433593 22.101563 8.433593 30.535156 0 8.429688-8.429688 8.429688-22.101563 0-30.535157zm0 0" fill="#52ea28"/><path d="m394.324219 255.210938c8.433593-8.429688 8.433593-22.101563 0-30.535157-1.226563-1.226562-2.574219-2.253906-3.988281-3.121093l-29.671876 29.667968c.871094 1.414063 1.898438 2.761719 3.125 3.988282 8.429688 8.433593 22.101563 8.433593 30.535157 0zm0 0" fill="#3eb500"/><path d="m216.46875 285.089844c-1.433594 0-2.828125.140625-4.179688.40625v42.367187c1.351563.265625 2.746094.410157 4.179688.410157 11.921875 0 21.589844-9.667969 21.589844-21.59375 0-11.925782-9.667969-21.589844-21.589844-21.589844zm0 0" fill="#3eb500"/><path d="m65.144531 335.75c-16.027343 0-29.066406-13.042969-29.066406-29.070312 0-16.027344 13.039063-29.066407 29.066406-29.066407 16.03125 0 29.070313 13.039063 29.070313 29.066407 0 16.027343-13.039063 29.070312-29.070313 29.070312zm0-43.183594c-7.78125 0-14.113281 6.332032-14.113281 14.113282 0 7.785156 6.332031 14.117187 14.113281 14.117187 7.785157 0 14.117188-6.332031 14.117188-14.117187 0-7.78125-6.332031-14.113282-14.117188-14.113282zm0 0"/><path d="m65.144531 425.457031c-16.027343 0-29.066406-13.039062-29.066406-29.070312 0-16.027344 13.039063-29.066407 29.066406-29.066407 16.03125 0 29.070313 13.039063 29.070313 29.066407 0 16.03125-13.039063 29.070312-29.070313 29.070312zm0-43.183593c-7.78125 0-14.113281 6.332031-14.113281 14.113281 0 7.785156 6.332031 14.117187 14.113281 14.117187 7.785157 0 14.117188-6.332031 14.117188-14.117187 0-7.78125-6.332031-14.113281-14.117188-14.113281zm0 0"/><path d="m140.367188 425.457031c-16.027344 0-29.070313-13.039062-29.070313-29.070312 0-16.027344 13.042969-29.066407 29.070313-29.066407 16.027343 0 29.066406 13.039063 29.066406 29.066407 0 16.03125-13.039063 29.070312-29.066406 29.070312zm0-43.183593c-7.785157 0-14.117188 6.332031-14.117188 14.113281 0 7.785156 6.332031 14.117187 14.117188 14.117187 7.78125 0 14.113281-6.332031 14.113281-14.117187 0-7.78125-6.332031-14.113281-14.113281-14.113281zm0 0"/><path d="m216.46875 425.457031c-16.03125 0-29.070312-13.039062-29.070312-29.070312 0-16.027344 13.039062-29.066407 29.070312-29.066407 16.027344 0 29.066406 13.039063 29.066406 29.066407 0 16.03125-13.039062 29.070312-29.066406 29.070312zm0-43.183593c-7.785156 0-14.117188 6.332031-14.117188 14.113281 0 7.785156 6.332032 14.117187 14.117188 14.117187 7.78125 0 14.113281-6.332031 14.113281-14.117187 0-7.78125-6.332031-14.113281-14.113281-14.113281zm0 0"/><path d="m501.070312 157.988281-147.058593-147.058593c-14.574219-14.574219-38.285157-14.570313-52.859375 0l-147.054688 147.058593c-14.574218 14.574219-14.574218 38.285157 0 52.859375l.257813.257813h-116.976563c-20.609375 0-37.378906 16.769531-37.378906 37.378906v207.96875c0 20.613281 16.769531 37.378906 37.378906 37.378906h139.925782c4.128906 0 7.476562-3.347656 7.476562-7.476562 0-4.128907-3.347656-7.476563-7.476562-7.476563h-139.925782c-12.367187 0-22.429687-10.058594-22.429687-22.425781v-207.96875c0-12.363281 10.0625-22.425781 22.429687-22.425781h207.96875c12.367188 0 22.425782 10.0625 22.425782 22.425781v207.96875c0 12.367187-10.058594 22.429687-22.425782 22.429687h-35.816406c-4.128906 0-7.472656 3.347657-7.472656 7.476563s3.34375 7.472656 7.472656 7.472656h35.816406c20.609375 0 37.378906-16.765625 37.378906-37.375v-207.972656c0-20.609375-16.769531-37.375-37.378906-37.375h-69.851562l-10.828125-10.832031c-8.746094-8.746094-8.746094-22.972656 0-31.714844l147.054687-147.058594c8.746094-8.746094 22.972656-8.746094 31.71875 0l147.054688 147.054688c8.746094 8.746094 8.746094 22.972656 0 31.71875l-147.054688 147.054687c-8.746094 8.746094-22.972656 8.746094-31.71875 0l-5.804687-5.804687c-2.917969-2.917969-7.652344-2.917969-10.570313 0-2.921875 2.921875-2.921875 7.652344 0 10.574218l5.804688 5.804688c7.285156 7.285156 16.859375 10.929688 26.429687 10.929688 9.570313 0 19.144531-3.644532 26.429688-10.929688l147.054687-147.058594c14.578125-14.574218 14.578125-38.285156.003906-52.859375zm0 0"/><path d="m140.367188 335.75c-16.027344 0-29.070313-13.042969-29.070313-29.070312 0-16.027344 13.042969-29.066407 29.070313-29.066407 16.027343 0 29.066406 13.039063 29.066406 29.066407 0 16.027343-13.039063 29.070312-29.066406 29.070312zm0-43.183594c-7.785157 0-14.117188 6.332032-14.117188 14.113282 0 7.785156 6.332031 14.117187 14.117188 14.117187 7.78125 0 14.113281-6.332031 14.113281-14.117187 0-7.78125-6.332031-14.113282-14.113281-14.113282zm0 0"/><path d="m216.46875 335.75c-16.03125 0-29.070312-13.042969-29.070312-29.070312 0-16.027344 13.039062-29.066407 29.070312-29.066407 16.027344 0 29.066406 13.039063 29.066406 29.066407 0 16.027343-13.039062 29.070312-29.066406 29.070312zm0-43.183594c-7.785156 0-14.117188 6.332032-14.117188 14.113282 0 7.785156 6.332032 14.117187 14.117188 14.117187 7.78125 0 14.113281-6.332031 14.113281-14.117187 0-7.78125-6.332031-14.113282-14.113281-14.113282zm0 0"/><path d="m272.054688 162.011719c-7.761719 0-15.0625-3.023438-20.550782-8.511719-5.492187-5.492188-8.515625-12.789062-8.515625-20.554688 0-7.765624 3.023438-15.0625 8.515625-20.554687 5.488282-5.488281 12.785156-8.511719 20.550782-8.511719 7.765624 0 15.066406 3.023438 20.554687 8.511719 5.492187 5.492187 8.515625 12.789063 8.515625 20.554687 0 7.765626-3.023438 15.0625-8.515625 20.554688-5.488281 5.488281-12.789063 8.511719-20.554687 8.511719zm0-43.183594c-3.769532 0-7.316407 1.46875-9.980469 4.132813v.003906c-2.667969 2.664062-4.136719 6.207031-4.136719 9.980468 0 3.769532 1.46875 7.3125 4.136719 9.980469 2.664062 2.667969 6.210937 4.136719 9.980469 4.136719 3.773437 0 7.316406-1.46875 9.984374-4.136719 2.664063-2.667969 4.132813-6.210937 4.132813-9.980469 0-3.773437-1.46875-7.316406-4.132813-9.980468-2.667968-2.667969-6.210937-4.136719-9.984374-4.136719zm-15.265626-1.152344h.007813zm0 0"/><path d="m325.246094 215.199219c-7.765625 0-15.066406-3.023438-20.554688-8.511719-5.492187-5.492188-8.515625-12.789062-8.515625-20.554688 0-7.765624 3.023438-15.0625 8.515625-20.554687 5.488282-5.488281 12.789063-8.511719 20.554688-8.511719 7.761718 0 15.0625 3.023438 20.554687 8.515625 5.488281 5.488281 8.511719 12.785157 8.511719 20.550781 0 7.765626-3.023438 15.0625-8.511719 20.554688-5.492187 5.488281-12.792969 8.511719-20.554687 8.511719zm0-43.183594c-3.769532 0-7.316406 1.46875-9.984375 4.136719-2.664063 2.664062-4.132813 6.210937-4.132813 9.980468 0 3.769532 1.46875 7.316407 4.132813 9.980469 2.667969 2.667969 6.214843 4.136719 9.984375 4.136719 3.769531 0 7.316406-1.46875 9.980468-4.136719 2.667969-2.664062 4.136719-6.210937 4.136719-9.980469 0-3.769531-1.46875-7.316406-4.136719-9.980468-2.667968-2.667969-6.210937-4.136719-9.980468-4.136719zm-15.269532-1.148437h.007813zm0 0"/><path d="m379.054688 269.011719c-7.765626 0-15.0625-3.023438-20.554688-8.511719-5.488281-5.492188-8.511719-12.789062-8.511719-20.554688 0-7.765624 3.023438-15.0625 8.511719-20.554687 5.492188-5.488281 12.789062-8.511719 20.554688-8.511719 7.765624 0 15.0625 3.023438 20.554687 8.511719 5.488281 5.492187 8.511719 12.789063 8.511719 20.554687 0 7.765626-3.019532 15.0625-8.511719 20.554688-5.492187 5.488281-12.789063 8.511719-20.554687 8.511719zm0-43.183594c-3.769532 0-7.316407 1.46875-9.980469 4.132813v.003906c-2.667969 2.664062-4.136719 6.207031-4.136719 9.980468 0 3.769532 1.46875 7.3125 4.136719 9.980469 2.664062 2.667969 6.210937 4.136719 9.980469 4.136719 3.769531 0 7.316406-1.46875 9.980468-4.136719 2.667969-2.667969 4.136719-6.210937 4.136719-9.980469 0-3.773437-1.46875-7.316406-4.136719-9.980468-2.664062-2.667969-6.210937-4.136719-9.980468-4.136719zm-15.265626-1.152344h.007813zm0 0"/></svg>