<?xml version="1.0" encoding="iso-8859-1"?>
<!-- Generator: Adobe Illustrator 19.0.0, SVG Export Plug-In . SVG Version: 6.00 Build 0)  -->
<svg version="1.1" id="Capa_1" xmlns="http://www.w3.org/2000/svg" xmlns:xlink="http://www.w3.org/1999/xlink" x="0px" y="0px"
	 viewBox="0 0 512.001 512.001" style="enable-background:new 0 0 512.001 512.001;" xml:space="preserve">
<g>
	<g>
		<path d="M509.805,456.771L309.033,256L509.804,55.23c2.929-2.93,2.929-7.678,0-10.607L467.377,2.197
			c-2.931-2.93-7.679-2.928-10.607,0L256,202.967L55.23,2.197c-2.929-2.928-7.678-2.928-10.606,0L2.197,44.623
			c-2.929,2.93-2.929,7.678,0,10.607L202.967,256L2.197,456.77c-2.929,2.93-2.929,7.678,0,10.607l42.427,42.427
			c2.929,2.928,7.678,2.928,10.606,0l31.82-31.819c2.929-2.93,2.929-7.678,0-10.607c-2.928-2.928-7.677-2.928-10.606,0
			l-26.517,26.517l-31.82-31.82l200.77-200.77c2.929-2.93,2.929-7.678,0-10.607L18.107,49.927l31.82-31.82l200.77,200.771
			c2.928,2.928,7.676,2.928,10.607,0l200.77-200.771l31.82,31.82l-200.771,200.77c-2.929,2.93-2.929,7.678,0,10.607l200.771,200.77
			l-31.82,31.82l-200.77-200.771c-1.407-1.406-3.314-2.196-5.304-2.196c-1.99,0-3.897,0.79-5.303,2.196L97.962,445.859
			c-2.929,2.93-2.929,7.678,0,10.607c2.929,2.928,7.678,2.928,10.606,0L256,309.034l200.77,200.771
			c1.465,1.464,3.384,2.196,5.304,2.196c1.919,0,3.839-0.732,5.304-2.196l42.427-42.427
			C512.734,464.448,512.734,459.7,509.805,456.771z"/>
	</g>
</g>
<g>
</g>
<g>
</g>
<g>
</g>
<g>
</g>
<g>
</g>
<g>
</g>
<g>
</g>
<g>
</g>
<g>
</g>
<g>
</g>
<g>
</g>
<g>
</g>
<g>
</g>
<g>
</g>
<g>
</g>
</svg>
