<?xml version="1.0" encoding="iso-8859-1"?>
<!-- Generator: Adobe Illustrator 19.0.0, SVG Export Plug-In . SVG Version: 6.00 Build 0)  -->
<svg version="1.1" id="Capa_1" xmlns="http://www.w3.org/2000/svg" xmlns:xlink="http://www.w3.org/1999/xlink" x="0px" y="0px"
	 viewBox="0 0 512 512" style="enable-background:new 0 0 512 512;" xml:space="preserve">
<g>
	<g>
		<path d="M362.297,227.12c-2.845-2.846-7.458-2.846-10.306,0L134.947,444.164l-67.112-67.112l29.941-29.94
			c2.845-2.845,2.845-7.459,0-10.305c-2.845-2.846-7.459-2.846-10.305,0l-35.084,35.084c-0.003,0.003-0.007,0.006-0.01,0.009
			l-0.275,0.275c-0.688,0.688-1.232,1.508-1.598,2.41L0.997,496.469c-1.905,4.208-1.038,9.002,2.248,12.287
			C5.374,510.886,8.14,512,10.968,512c1.533,0,3.084-0.327,4.564-0.996l121.882-49.508c0.902-0.367,1.722-0.91,2.411-1.599
			l0.275-0.275l222.197-222.197C365.142,234.579,365.142,229.966,362.297,227.12z M17.543,494.457L60.03,389.858l62.111,62.111
			L17.543,494.457z"/>
	</g>
</g>
<g>
	<g>
		<path d="M501.509,10.492c-13.99-13.989-36.75-13.989-50.741,0L419.591,41.67l-6.952-6.952c-3.082-3.083-7.179-4.78-11.539-4.78
			c-4.358,0-8.456,1.697-11.539,4.779l-270.069,270.07c-2.845,2.845-2.845,7.459,0,10.305c1.423,1.423,3.288,2.134,5.153,2.134
			s3.73-0.712,5.153-2.134l204.907-204.908l67.112,67.112l-17.885,17.885c-2.845,2.845-2.845,7.459,0,10.305
			c2.846,2.845,7.459,2.846,10.306,0l36.447-36.447l18.807,18.806c0.746,0.746,0.858,1.617,0.858,2.07s-0.112,1.324-0.859,2.071
			L317.113,324.361c-2.845,2.845-2.845,7.459,0,10.305c1.423,1.423,3.288,2.134,5.153,2.134c1.864,0,3.73-0.712,5.153-2.134
			L459.795,202.29c3.306-3.306,5.126-7.701,5.126-12.376c0-4.675-1.821-9.07-5.126-12.375l-18.806-18.806l36.293-36.294
			c3.083-3.082,4.78-7.18,4.78-11.539s-1.697-8.457-4.779-11.539l-6.952-6.952l31.178-31.178
			C515.497,47.242,515.497,24.481,501.509,10.492z M412.121,166.99l-67.112-67.112l26.821-26.821l67.111,67.111L412.121,166.99z
			 M466.977,112.134l-17.731,17.731l-67.112-67.112l17.731-17.731c0.423-0.423,0.905-0.511,1.234-0.511
			c0.33,0,0.811,0.089,1.233,0.511l64.645,64.644c0.422,0.422,0.51,0.904,0.51,1.233
			C467.489,111.229,467.401,111.711,466.977,112.134z M491.204,50.926l-31.178,31.178l-30.13-30.13l31.177-31.178
			c8.307-8.307,21.825-8.307,30.13,0C499.51,29.104,499.51,42.619,491.204,50.926z"/>
	</g>
</g>
<g>
</g>
<g>
</g>
<g>
</g>
<g>
</g>
<g>
</g>
<g>
</g>
<g>
</g>
<g>
</g>
<g>
</g>
<g>
</g>
<g>
</g>
<g>
</g>
<g>
</g>
<g>
</g>
<g>
</g>
</svg>
